# xmcd
#
# Track frame offsets:
#	150
#	12446
#	25801
#	37760
#	51776
#	62982
#	79852
#	88689
#	101393
#	111490
#	123442
#	136651
#	149565
#	170009
#	189020
#	199462
#	212254
#	223223
#	237897
#	250803
#
# Disc length: 3497 seconds
#
# Revision: 0
# Processed by: cddbd v1.5.2PL0 Copyright (c) Steve Scherf et al.
# Submitted via: FairStars CD Ripper 1.80
#
DISCID=1b0da714
DTITLE=Various Artist - Battle Of The Blues cd2
DYEAR=2014
DGENRE=Blues
TTITLE0=Little Walter - Boom Boom (Out Go the Lights)
TTITLE1=Little Junior'S Blue Flames - Fussin' and Fightin' Blues
TTITLE2=Freddy King - Hide Away
TTITLE3=Big Bill Broonzy - Hollerin' and Cryin' the Blues
TTITLE4=Albert King - I Get Evil
TTITLE5=Lightnin' Hopkins - Baby, Don't You Tear My Clothes
TTITLE6=Chuck Berry - Rip It Up
TTITLE7=Baby Face Leroy Trio - Rollin' and Tumblin', Pt. 1
TTITLE8=Elmore James - Mean and Evil
TTITLE9=Little Buddy Doyle - Hard Scuffin' Blues
TTITLE10=Jon Brim - Mean Man Blues
TTITLE11=Furry Lewis - Shake 'Em on Down
TTITLE12=Lil' Dave Thompson - Caught Up in a Crossfire
TTITLE13=Jimmy Rogers - Rock This House
TTITLE14=Muddy Waters - Messin' with the Man
TTITLE15=Howlin' Wolf - I Asked for Water (She Gave Me Gasoline)
TTITLE16=Sonny Terry - This Woman is Killing Me
TTITLE17=Bo Diddley - I'm Bad
TTITLE18=Jimmy Witherspoon - When the Lights Go Out
TTITLE19=John Lee Hooker - Boom Boom
EXTD=
EXTT0=
EXTT1=
EXTT2=
EXTT3=
EXTT4=
EXTT5=
EXTT6=
EXTT7=
EXTT8=
EXTT9=
EXTT10=
EXTT11=
EXTT12=
EXTT13=
EXTT14=
EXTT15=
EXTT16=
EXTT17=
EXTT18=
EXTT19=
PLAYORDER=
